<?xml version="1.0" ?><!DOCTYPE svg  PUBLIC '-//W3C//DTD SVG 1.1//EN'  'http://www.w3.org/Graphics/SVG/1.1/DTD/svg11.dtd'><svg height="256px" style="shape-rendering:geometricPrecision; text-rendering:geometricPrecision; image-rendering:optimizeQuality; fill-rule:evenodd; clip-rule:evenodd" version="1.1" viewBox="0 0 256001 256001" width="256px" xml:space="preserve" xmlns="http://www.w3.org/2000/svg" xmlns:xlink="http://www.w3.org/1999/xlink"><defs><style type="text/css">
   <![CDATA[
    .fil2 {fill:none}
    .fil0 {fill:#1DD069}
    .fil1 {fill:#FFFFFE}
   ]]>
  </style></defs><g id="Layer_x0020_1"><path class="fil0" d="M255991 128001c-2,-35353 -14324,-67352 -37482,-90510 -23162,-23163 -55163,-37491 -90509,-37491 -35346,0 -67347,14328 -90509,37491 -23164,23164 -37491,55164 -37491,90510 0,35346 14327,67347 37491,90510 23162,23163 55163,37490 90509,37490 35346,0 67347,-14327 90511,-37490 23162,-23163 37490,-55164 37490,-90510l-10 0z"/><path class="fil1" d="M214755 90890c-4313,-2516 -8758,-4793 -13322,-6857 -4487,-2028 -9124,-3854 -13895,-5500 -11554,-3990 -23283,-6872 -35149,-8841 -11843,-1964 -23852,-3023 -35986,-3371 -4923,-141 -9844,-139 -14759,10 -4921,149 -9841,445 -14762,895 -4720,430 -9342,964 -13831,1641 -4566,687 -9140,1539 -13723,2598 -1833,423 -3668,867 -5500,1355 -1895,503 -3741,1038 -5503,1619 -2960,976 -5391,2880 -7070,5305 -1695,2446 -2614,5429 -2527,8521 89,3146 1165,6060 2966,8405 1811,2357 4355,4147 7366,5028 1372,402 2737,579 4104,563 1368,-14 2702,-212 4016,-563l1325 -356c3159,-848 6322,-1696 9516,-2385 4908,-1061 9849,-1867 14816,-2471 5040,-614 10055,-1022 15051,-1281 4441,-230 8839,-329 13197,-305 4336,24 8733,173 13187,441 4219,253 8455,627 12707,1126 4149,485 8308,1095 12475,1829 6041,1066 11962,2353 17723,3925 5791,1581 11517,3467 17161,5730 2851,1143 5611,2383 8300,3702 2687,1320 5376,2754 8063,4275 2344,1326 4813,1938 7210,1949 2587,10 5074,-681 7227,-1930 2160,-1255 3991,-3071 5259,-5310 1173,-2074 1860,-4505 1871,-7178l-22 -351c-14,-112 -46,-418 -79,-729 -68,-652 -137,-1305 -300,-2030 -477,-2121 -1349,-3959 -2572,-5545 -1212,-1570 -2738,-2862 -4540,-3914z"/><path class="fil1" d="M165883 118465c-10804,-3463 -21743,-5928 -32811,-7419 -11064,-1489 -22262,-2007 -33590,-1578 -5332,202 -10581,603 -15731,1234 -5159,630 -10348,1509 -15569,2669 -2145,476 -4252,985 -6317,1527 -2034,533 -4082,1114 -6139,1742 -2541,775 -4620,2300 -6094,4286 -1491,2009 -2357,4490 -2444,7134 -85,2550 649,5020 2002,7087 1348,2060 3315,3733 5698,4698 1454,590 2942,870 4451,892 1451,22 2885,-201 4295,-620 6784,-2013 13647,-3459 20512,-4424 7385,-1039 14752,-1521 22007,-1552 5659,24 11153,281 16553,781 5366,497 10663,1241 15961,2243 6833,1294 13549,2970 20117,5115 6527,2131 12909,4735 19114,7898 1989,1014 3943,2132 5895,3248l2133 1203c3017,1701 6352,2104 9376,1362 3069,-754 5808,-2663 7579,-5572 1644,-2704 2204,-6205 1403,-9475 -720,-2945 -2513,-5713 -5569,-7579l-75 -46c-518,-317 -1040,-636 -1402,-851 -4933,-2934 -10034,-5557 -15287,-7893 -5236,-2328 -10596,-4356 -16068,-6110z"/><path class="fil1" d="M133218 151882c-8125,-1250 -16402,-1857 -24807,-1945l-170 0c-1872,105 -3515,186 -5158,267 -3956,193 -7913,387 -11613,700 -4979,420 -9996,1056 -15041,1869 -4986,801 -9935,1774 -14851,2877 -386,86 -790,182 -1267,313l-11 0c-476,131 -947,281 -1408,466 -2330,937 -4130,2603 -5236,4677 -1094,2053 -1496,4487 -1041,6981 445,2435 1737,4547 3549,6036 1795,1476 4097,2345 6589,2318 760,-9 1505,-84 2234,-198 684,-106 1346,-244 1994,-387 5859,-1297 11770,-2365 17737,-3170 5944,-801 11917,-1337 17917,-1573 4617,-181 9237,-149 13859,102 4559,250 9150,725 13769,1431 7459,1143 14675,2901 21628,5327 6955,2428 13682,5535 20165,9378l3 -4 322 194c653,392 1310,785 2031,1103 2411,1065 5028,1149 7373,410 2357,-744 4446,-2325 5790,-4585 1365,-2296 1770,-4911 1302,-7359 -468,-2442 -1813,-4716 -3949,-6337 -743,-565 -1399,-955 -2053,-1342l-195 -116 -1 4c-3987,-2374 -8087,-4525 -12295,-6454 -4207,-1930 -8511,-3633 -12909,-5116 -7994,-2696 -16084,-4609 -24257,-5867z"/></g><rect class="fil2" height="256000" width="256000" y="1"/></svg>