<?xml version="1.0" ?><!DOCTYPE svg  PUBLIC '-//W3C//DTD SVG 1.1//EN'  'http://www.w3.org/Graphics/SVG/1.1/DTD/svg11.dtd'><svg enable-background="new 0 0 512 512" id="Layer_1" version="1.1" viewBox="0 0 512 512" xml:space="preserve" xmlns="http://www.w3.org/2000/svg" xmlns:xlink="http://www.w3.org/1999/xlink"><g><g><circle cx="256" cy="256" fill="#E20505" r="244.4"/></g></g><path d="M158.1,337.4c-9.3-3.1-15.6-9.2-18.9-18.4c-8.2-22.5-10.6-116.8,5.2-135.4c5.4-6.3,12.3-10.1,20.6-10.9  c42.5-4.6,174-3.9,189.1,1.5c8.9,3.2,15.2,9,18.6,17.9c9,23.3,9.3,108.1-1.2,130.5c-2.8,6.1-7.5,10.4-13.4,13.5  C342.2,344.4,178.9,344.3,158.1,337.4z M225.6,293.2c25.6-13.3,50.9-26.4,76.6-39.7c-25.7-13.4-51.1-26.6-76.6-40  C225.6,240.1,225.6,266.5,225.6,293.2z" fill="#FFFFFF"/><g><path d="M255.3,474.1c-58.5,0-113.5-22.8-154.9-64.2C59,368.5,36.2,313.5,36.2,255S59,141.5,100.3,100.1   c41.4-41.4,96.4-64.2,154.9-64.2s113.5,22.8,154.9,64.2c41.4,41.4,64.2,96.4,64.2,154.9s-22.8,113.5-64.2,154.9   S313.8,474.1,255.3,474.1z M255.3,51.9C143.3,51.9,52.2,143,52.2,255s91.1,203.1,203.1,203.1S458.3,367,458.3,255   S367.2,51.9,255.3,51.9z" fill="#FFFFFF"/></g></svg>