<?xml version="1.0" encoding="UTF-8"?>
<!DOCTYPE svg PUBLIC "-//W3C//DTD SVG 1.1//EN" "http://www.w3.org/Graphics/SVG/1.1/DTD/svg11.dtd">
<svg version="1.1" xmlns="http://www.w3.org/2000/svg" xmlns:xlink="http://www.w3.org/1999/xlink" width="26" height="26"  xml:space="preserve" id="apple">
    <!-- Generated by PaintCode - http://www.paintcodeapp.com -->
    <g id="apple-canvas2apple">
        <path id="apple-canvas2bezier" stroke="none" fill="rgb(0, 0, 0)" d="M 23.54,20.24 L 23.57,20.17 C 23.19,21.07 22.71,21.93 22.15,22.73 L 22.07,22.85 C 21.53,23.69 20.89,24.46 20.17,25.15 L 20.32,25.01 C 19.69,25.62 18.86,25.97 17.98,26 L 17.96,26 C 17.23,25.96 16.52,25.79 15.86,25.49 L 15.84,25.49 C 15.12,25.18 14.34,25.01 13.55,25 L 13.56,25 C 12.73,25.01 11.92,25.19 11.16,25.51 L 11.14,25.52 C 10.49,25.81 9.79,25.99 9.07,26.05 L 9.11,26.05 C 8.2,26.03 7.34,25.65 6.72,24.99 L 6.76,25.03 C 6.06,24.35 5.42,23.6 4.88,22.79 L 4.87,22.77 C 3.98,21.5 3.29,20.12 2.82,18.65 L 2.88,18.83 C 2.33,17.32 2.03,15.72 2,14.11 L 2,14.06 C 1.95,12.5 2.32,10.96 3.08,9.6 L 3.16,9.44 C 3.72,8.43 4.54,7.58 5.53,6.99 L 5.49,7.01 C 6.46,6.43 7.57,6.11 8.7,6.09 L 8.79,6.09 C 9.64,6.15 10.48,6.35 11.26,6.69 L 11.22,6.67 C 11.87,6.96 12.56,7.16 13.27,7.26 L 13.27,7.24 C 14.02,7.08 14.75,6.85 15.46,6.55 L 15.43,6.56 C 16.37,6.18 17.38,6 18.39,6.04 L 18.45,6.04 C 20.4,6.11 22.21,7.07 23.36,8.65 L 23.35,8.66 C 21.5,9.64 20.37,11.59 20.44,13.69 L 20.44,13.63 C 20.41,15.22 21.08,16.76 22.27,17.82 L 22.26,17.82 C 22.77,18.32 23.38,18.72 24.04,19.02 23.85,19.42 23.7,19.82 23.54,20.21 L 23.54,20.24 Z M 18.5,0.4 L 18.5,0.42 C 18.48,1.77 17.97,3.06 17.06,4.07 L 17.07,4.06 C 16.14,5.34 14.64,6.09 13.06,6.06 L 13.07,6.08 C 13.06,5.93 13.06,5.77 13.07,5.62 L 13.07,5.55 C 13.12,4.18 13.66,2.87 14.6,1.86 L 14.6,1.86 C 15.13,1.27 15.77,0.8 16.48,0.47 L 16.44,0.49 C 17.08,0.16 17.79,-0.04 18.51,-0.11 L 18.54,-0.09 C 18.55,0.07 18.55,0.23 18.54,0.39 L 18.5,0.4 Z M 18.5,0.4" />
    </g>
</svg>
