<?xml version="1.0" encoding="utf-8"?>
<!-- Generator: Adobe Illustrator 26.0.3, SVG Export Plug-In . SVG Version: 6.00 Build 0)  -->
<svg version="1.0" id="Layer_1" xmlns="http://www.w3.org/2000/svg" xmlns:xlink="http://www.w3.org/1999/xlink" x="0px" y="0px"
	 viewBox="0 0 936 666.3" style="enable-background:new 0 0 936 666.3;" xml:space="preserve">
<path d="M575.9,536.3c4.3-3.2,6.4-7.7,6.4-13.7c0.1-3.7-1.3-7.2-3.9-9.8c-2.6-2.5-7.3-5-14.2-7.5l-21.3-8
	c-18.5-6.8-27.8-18.5-27.8-35c0-10.8,4.2-19.6,12.6-26.2c8.4-6.7,19.5-10,33.2-10c10.9,0,21.6,2,31.8,5.8c1.6,0.4,3.1,1.4,4.3,2.6
	c0.9,1.4,1.4,3.2,1.2,4.9v6.8c0,3-1.1,4.5-3.3,4.5c-2-0.2-3.9-0.6-5.8-1.2c-8.8-2.7-17.9-4-27.1-4c-16,0-24,5.4-24,16.2
	c0,4.3,1.3,7.7,4,10.2c2.7,2.5,7.9,5.2,15.8,8.2l19.5,7.5c9.9,3.8,17,8.4,21.3,13.6c4.3,5.3,6.5,12,6.5,20.4
	c0,11.8-4.4,21.3-13.3,28.2c-8.9,7-20.6,10.5-35.3,10.5c-14,0-26.6-2.3-37.8-7c-1.6-0.5-3-1.5-4.1-2.8c-0.9-1.4-1.3-3.1-1.1-4.8v-7
	c0-3,1-4.5,3-4.5c2.1,0.2,4.3,0.7,6.3,1.5c11.1,3.5,22.7,5.3,34.3,5.2C565.4,541.1,571.7,539.5,575.9,536.3L575.9,536.3z"/>
<path d="M465,434.9c0-3.3,1.7-5,5-5h14.8c3.4,0,5,1.7,5,5v116.7c0,3.3-1.7,5-5,5H474c-1.4,0.1-2.7-0.3-3.9-1c-1.1-1-1.8-2.3-1.9-3.8
	l-1.8-8.7c-15.5,11.5-31.5,17.2-47.8,17.2c-11.9,0-21-3.3-27.3-10c-6.4-6.7-9.5-16.1-9.5-28.2v-87.2c0-3.3,1.7-5,5-5h14.8
	c3.3,0,5,1.7,5,5v79.2c0,9,1.8,15.6,5.3,19.9c3.5,4.2,9.1,6.4,16.8,6.4c12,0,24.1-4,36.3-12L465,434.9L465,434.9z"/>
<path d="M330.7,556.6c-3.3,0-5-1.7-5-5v-81c0-8.3-1.6-14.5-4.8-18.5c-3.2-4-8.2-6-15-6c-12.2,0-24.5,3.8-36.8,11.2
	c0.2,1.2,0.3,2.5,0.2,3.8v90.5c0,3.3-1.7,5-5,5h-14.8c-3.3,0-5-1.7-5-5v-81c0-8.3-1.6-14.5-4.8-18.5c-3.2-4-8.2-6-15-6
	c-12.7,0-24.9,3.7-36.6,11v94.5c0,3.3-1.7,5-5,5h-14.8c-3.3,0-5-1.7-5-5V434.9c0-3.3,1.7-5,5-5h11c1.4-0.1,2.7,0.3,3.9,1
	c1.1,1,1.8,2.3,1.9,3.8l1.5,8c16-11,31.7-16.5,46.9-16.5c15.5,0,26,5.9,31.6,17.7c16.6-11.8,33.1-17.7,49.6-17.7
	c11.5,0,20.4,3.2,26.6,9.7c6.2,6.5,9.3,15.7,9.3,27.8v88c0,3.3-1.7,5-5,5L330.7,556.6L330.7,556.6z"/>
<path d="M713.3,458c-6.2,7.1-9.3,18.4-9.3,33.9v3.2c0,15.2,3.1,26.3,9.4,33.4c6.3,7.1,16.2,10.6,29.7,10.6
	c7.6-0.1,15.2-1.3,22.5-3.5c1.2-0.4,2.5-0.6,3.8-0.8c2.2,0,3.2,1.7,3.2,5v6.8c0.6,3.4-1.6,6.7-5,7.5c-8.2,3.5-17.7,5.2-28.6,5.2
	c-19.7,0-34.8-5.6-45.2-16.9c-10.4-11.2-15.7-27.5-15.7-48.9c0-21.2,5.4-37.5,16.2-49.1s26-17.4,45.7-17.4c9.1,0,18.1,1.6,26.6,4.8
	c1.5,0.4,2.9,1.3,3.9,2.5c0.8,1,1.1,2.7,1.1,5v6.8c0,3.3-1.1,5-3.3,5c-1.4-0.1-2.7-0.3-4-0.8c-6.8-2-13.8-3-20.8-3
	C729.5,447.4,719.4,450.9,713.3,458L713.3,458z"/>
<path d="M647,429.9c3.3,0,5,1.7,5,5v116.7c0,3.3-1.7,5-5,5h-14.8c-3.3,0-5-1.7-5-5V434.9c0-3.3,1.7-5,5-5H647z"/>
<path d="M651.2,381.5c5.5,6.2,5.5,15.5,0,21.8c-2.8,2.8-6.5,4.1-11.4,4.1s-8.6-1.4-11.4-4.1s-4.1-6.4-4.1-10.9
	c-0.2-4,1.3-8,4.1-10.9c2.8-2.7,6.6-4.1,11.4-4.1C644.6,377.4,648.4,378.7,651.2,381.5z"/>
<path d="M526.5,130.6v-17c-0.1-2.3,1.8-4.2,4.1-4.3c0.1,0,0.2,0,0.2,0h76.3c2.3-0.1,4.3,1.7,4.4,4.1c0,0.1,0,0.1,0,0.2v14.6
	c0,2.4-2.1,5.6-5.7,10.7l-39.5,56.3c14.7-0.3,30.2,1.9,43.5,9.3c2.4,1.3,4,3.9,4,6.6v18.1c0,2.5-2.7,5.4-5.6,3.9
	c-23.5-12.3-54.7-13.6-80.6,0.1c-2.7,1.4-5.4-1.4-5.4-3.9v-17.2c0-2.8,0.1-7.5,2.8-11.7l45.8-65.5h-39.9c-2.3,0.1-4.3-1.7-4.4-4.1
	C526.5,130.8,526.5,130.7,526.5,130.6L526.5,130.6z"/>
<path d="M248.2,236.7H225c-2.2-0.1-3.9-1.8-4.1-3.9V113.9c0.1-2.4,2.1-4.3,4.5-4.3c0,0,0,0,0,0H247c2.2,0.1,4,1.8,4.2,4v15.5h0.4
	c5.6-15,16.2-22,30.6-22c14.5,0,23.6,7,30.1,22c5.6-15,18.4-22,32.1-22c9.8,0,20.4,4,26.9,13c7.4,10,5.9,24.5,5.9,37.3v75
	c-0.1,2.4-2.1,4.3-4.5,4.3c0,0,0,0,0,0h-23.3c-2.3-0.1-4.1-2-4.2-4.3v-63c0-5,0.4-17.5-0.6-22.3c-1.7-8-6.9-10.3-13.6-10.3
	c-6.2,0.2-11.7,4-13.9,9.7c-2.4,6-2.2,16-2.2,22.8v63c0,2.4-2,4.3-4.5,4.3c0,0,0,0,0,0h-23.1c-2.3-0.1-4.1-2-4.2-4.3v-63
	c0-13.2,2.2-32.8-14.3-32.8c-16.7,0-16,19-16,32.8v63C252.7,234.9,250.7,236.8,248.2,236.7C248.3,236.7,248.3,236.7,248.2,236.7
	L248.2,236.7z"/>
<path d="M677.2,107.2c-33.6,0-52.2,28.7-52.2,65.8c0,36.8,18.4,66.3,52.2,66.3c32.5,0,53.1-28.8,53.1-65
	C730.3,136.7,711.7,107.2,677.2,107.2z M677.2,214.7c-18.2,0-18-31-18-45.5s1.1-37.8,18.2-37.8c7.4,0,12.6,3.2,15.2,11.5
	c3,9.5,3.5,21.5,3.5,31.5C696.1,189.7,695.2,214.7,677.2,214.7L677.2,214.7z"/>
<path d="M775,236.7h-23.1c-2.3-0.1-4.1-2-4.2-4.3V113.5c0.3-2.3,2.2-3.9,4.5-3.9h21.5c2,0.1,3.6,1.4,4.1,3.3v18.2h0.4
	c6.5-16.3,15.6-24,31.6-24c10.4,0,20.6,3.8,27.1,14c6.1,9.5,6.1,25.5,6.1,37V233c-0.3,2.2-2.2,3.8-4.5,3.7h-23.3
	c-2.1-0.1-3.8-1.7-4.1-3.7v-64.5c0-13,1.5-32-14.5-32c-5.6,0-10.8,3.8-13.4,9.5c-3.2,7.2-3.7,14.5-3.7,22.5v64
	C779.4,234.9,777.4,236.8,775,236.7L775,236.7z"/>
<path d="M507,214.9c-4.2-5.9-8.8-10.6-8.8-21.5v-36.1c0-15.3,1.1-29.3-10.2-39.9c-8.9-8.5-23.7-11.5-35-11.5
	c-22.1,0-46.7,8.2-51.9,35.5c-0.5,2.9,1.6,4.4,3.5,4.9l22.5,2.4c2.1-0.1,3.6-2.2,4-4.3c1.9-9.4,9.8-13.9,18.7-13.9
	c4.8,0,10.2,1.8,13,6c3.3,4.8,2.8,11.3,2.8,16.8v3c-13.5,1.5-31.1,2.5-43.6,8c-14.5,6.3-24.8,19.1-24.8,37.9
	c0,24.1,15.2,36.1,34.7,36.1c16.5,0,25.5-3.9,38.3-16.8c4.2,6.1,5.6,9,13.3,15.4c1.8,1,3.9,0.8,5.5-0.5l0.1,0
	c4.6-4.1,13.1-11.4,17.8-15.4C508.8,219.6,508.5,217.1,507,214.9z M461.3,204.5c-3.7,6.5-9.5,10.5-16.1,10.5
	c-8.9,0-14.1-6.8-14.1-16.8c0-19.7,17.7-23.3,34.5-23.3v5C465.7,189,465.9,196.5,461.3,204.5L461.3,204.5z"/>
<path d="M202.7,214.9c-4.2-5.9-8.8-10.6-8.8-21.5v-36.1c0-15.3,1.1-29.3-10.2-39.9c-8.9-8.5-23.7-11.5-35-11.5
	c-22.1,0-46.8,8.2-51.9,35.5c-0.6,2.9,1.6,4.4,3.5,4.9l22.5,2.4c2.1-0.1,3.6-2.2,4-4.3c1.9-9.4,9.8-13.9,18.7-13.9
	c4.8,0,10.2,1.8,13,6c3.2,4.8,2.8,11.3,2.8,16.8v3c-13.5,1.5-31,2.5-43.6,8c-14.5,6.3-24.7,19.1-24.7,37.9
	c0,24.1,15.2,36.1,34.7,36.1c16.5,0,25.5-3.9,38.3-16.8c4.2,6.1,5.6,9,13.3,15.4c1.8,1,3.9,0.8,5.5-0.5l0.1,0.1
	c4.6-4.1,13.1-11.4,17.8-15.4C204.6,219.6,204.2,217.1,202.7,214.9z M157.1,204.5c-3.7,6.5-9.6,10.5-16.1,10.5
	c-8.9,0-14.1-6.8-14.1-16.8c0-19.7,17.7-23.3,34.5-23.3v5C161.4,189,161.6,196.5,157.1,204.5z"/>
<path d="M558.1,282.3c-43.6,32.1-106.8,49.1-161.2,49.1c-76.2,0-144.9-28.1-196.9-74.9c-4.1-3.7-0.4-8.7,4.5-5.9
	c56.1,32.5,125.4,52.1,197,52.1c51.6-0.3,102.7-10.7,150.2-30.7C559.1,269,565.3,277,558.1,282.3L558.1,282.3z"/>
<path d="M576.2,261.7c-5.6-7.1-36.8-3.4-50.9-1.7c-4.2,0.5-4.9-3.2-1.1-5.9c25-17.5,65.8-12.4,70.6-6.6s-1.3,46.8-24.6,66.3
	c-3.6,3-7,1.4-5.4-2.6C570,298.2,581.7,268.8,576.2,261.7z"/>
</svg>
