<svg xmlns="http://www.w3.org/2000/svg"  viewBox="0 0 64 64" width="512px" height="512px"><radialGradient id="7PdZUOLe0rFVvEMaWFaNza" cx="32" cy="809.39" r="31.259" gradientTransform="translate(0 -775.89)" gradientUnits="userSpaceOnUse"><stop offset="0" stop-color="#f7e9c2"/><stop offset=".219" stop-color="#fbeecc"/><stop offset=".644" stop-color="#fff3db"/><stop offset="1" stop-color="#fff5e0"/></radialGradient><path fill="url(#7PdZUOLe0rFVvEMaWFaNza)" d="M59.307,42H45v-8h14.302c1.895,0,3.594-1.419,3.693-3.312C63.101,28.67,61.495,27,59.5,27H45	v-5h14.828c2.089,0,3.955-1.527,4.153-3.607C64.209,16.008,62.339,14,60,14H45v-4h9.302c1.895,0,3.594-1.419,3.693-3.312	C58.101,4.67,56.495,3,54.5,3H9.698C7.803,3,6.104,4.419,6.005,6.312C5.899,8.33,7.505,10,9.5,10H19v4h-3H9H4.172	c-2.089,0-3.955,1.527-4.153,3.607C-0.209,19.992,1.661,22,4,22h5h7h3v5H4.698c-1.895,0-3.594,1.419-3.693,3.312	C0.899,32.33,2.505,34,4.5,34H19v6H4.693c-2.35,0-4.449,1.718-4.672,4.058C-0.235,46.742,1.869,49,4.5,49h10	c2.485,0,4.5,2.015,4.5,4.5v1c0,1.933-1.567,3.5-3.5,3.5h-3.389c-1.451,0-2.781,0.981-3.054,2.406C8.689,62.323,10.149,64,12,64	h39.889c1.451,0,2.781-0.981,3.054-2.406C55.311,59.677,53.851,58,52,58h-3.5c-1.933,0-3.5-1.567-3.5-3.5l0,0	c0-1.933,1.567-3.5,3.5-3.5h11c2.631,0,4.735-2.258,4.479-4.942C63.756,43.718,61.657,42,59.307,42z"/><linearGradient id="7PdZUOLe0rFVvEMaWFaNzb" x1="32" x2="32" y1="843.763" y2="770.338" gradientTransform="translate(0 -775.89)" gradientUnits="userSpaceOnUse"><stop offset="0" stop-color="#005ce2"/><stop offset=".278" stop-color="#0080e8"/><stop offset=".569" stop-color="#009ced"/><stop offset=".82" stop-color="#00b0f1"/><stop offset="1" stop-color="#00b5f2"/></linearGradient><path fill="url(#7PdZUOLe0rFVvEMaWFaNzb)" d="M18,8h28c5.523,0,10,4.477,10,10v28c0,5.523-4.477,10-10,10H18c-5.523,0-10-4.477-10-10V18	C8,12.477,12.477,8,18,8z"/><linearGradient id="7PdZUOLe0rFVvEMaWFaNzc" x1="46.998" x2="46.998" y1="836.78" y2="777.976" gradientTransform="translate(0 -775.89)" gradientUnits="userSpaceOnUse"><stop offset="0" stop-color="#005ce2"/><stop offset=".278" stop-color="#0080e8"/><stop offset=".569" stop-color="#009ced"/><stop offset=".82" stop-color="#00b0f1"/><stop offset="1" stop-color="#00b5f2"/></linearGradient><path fill="url(#7PdZUOLe0rFVvEMaWFaNzc)" d="M56,44v2c0,5.523-4.477,10-10,10h-5.5c-1.466,0-2.634-1.254-2.491-2.749	C38.134,51.946,39.329,51,40.64,51l6.86,0c0.83,0,1.5-0.67,1.5-1.5S48.33,48,47.5,48h-1c-1.105,0-2-0.895-2-2v0c0-1.105,0.895-2,2-2	H56z"/><linearGradient id="7PdZUOLe0rFVvEMaWFaNzd" x1="15.999" x2="15.999" y1="847.425" y2="783.144" gradientTransform="translate(0 -775.89)" gradientUnits="userSpaceOnUse"><stop offset="0" stop-color="#005ce2"/><stop offset=".278" stop-color="#0080e8"/><stop offset=".569" stop-color="#009ced"/><stop offset=".82" stop-color="#00b0f1"/><stop offset="1" stop-color="#00b5f2"/></linearGradient><path fill="url(#7PdZUOLe0rFVvEMaWFaNzd)" d="M21,14h-5c-0.55,0-1.05,0.22-1.41,0.59C14.22,14.95,14,15.45,14,16c0,1.1,0.9,2,2,2h1	c1.21,0,2.18,1.08,1.97,2.34C18.81,21.32,17.89,22,16.89,22H8v-4c0-5.52,4.48-10,10-10h2.89c1.45,0,2.78,0.98,3.05,2.41	C24.31,12.32,22.85,14,21,14z"/><path fill="#fff" d="M47.578,37.163c-1.22,0-2.669,0.304-3.736,1.065c-0.305,0.228-0.305,0.532,0.077,0.532 c1.22-0.152,3.965-0.532,4.498,0.152c0.457,0.608-0.534,3.194-0.992,4.409c-0.152,0.38,0.152,0.456,0.457,0.228 c2.059-1.749,2.592-5.323,2.211-5.779C49.865,37.391,48.798,37.163,47.578,37.163z"/><path fill="#fff" d="M13.92,38.205c2.358,1.476,4.743,2.886,7.246,3.951c2.494,1.062,5.11,1.822,7.74,1.832 c2.678,0.072,5.397-0.296,8.035-0.896c2.648-0.61,5.228-1.528,7.762-2.603c0.331-0.142,0.715,0.013,0.856,0.344 c0.13,0.306,0.008,0.658-0.274,0.822c-2.459,1.419-5.118,2.519-7.888,3.264c-2.778,0.745-5.647,1.071-8.551,1.024 c-2.966-0.155-5.805-1.058-8.346-2.373c-2.547-1.321-4.86-2.984-6.972-4.843c-0.136-0.12-0.149-0.326-0.03-0.461 C13.607,38.144,13.787,38.122,13.92,38.205z"/><g><path fill="#fff" d="M21.831,27.123c-0.31,0.099-0.612,0.245-0.876,0.468c-0.237,0.215-0.405,0.443-0.558,0.681 c-0.001,0.002-0.002,0.004-0.003,0.006c-0.645-0.929-1.814-1.489-2.94-1.155c-0.31,0.099-0.612,0.245-0.876,0.468 c-0.095,0.086-0.173,0.176-0.249,0.266v-0.826h-1.303v7.818h1.303v-5.323c0.009-0.578,0.892-1.199,1.377-1.217 c0.663-0.02,1.467,0.268,1.74,0.917c0.151,0.315,0.143,0.632,0.141,1.181v1.48v2.962h1.303v-2.962v-1.48 c0.003-0.284,0.007-0.689-0.068-1.101c0.221-0.611,0.908-1.015,1.329-0.997c0.663-0.02,1.4,0.268,1.672,0.917 c0.151,0.315,0.143,0.632,0.141,1.181v1.48v2.962h1.303v-2.962v-1.48c0.004-0.43,0.031-1.137-0.259-1.725 C24.452,27.521,23.114,26.743,21.831,27.123z"/><path fill="#fff" d="M31.966,30.288v1.303c0,1.024-1.073,1.954-2.11,1.954h-0.27c-0.892,0-1.529-0.641-1.529-1.428 v-5.087h-1.303v5.087c0,1.506,1.225,2.731,2.731,2.731h0.327c0.668,0,1.676-0.725,2.154-1.39v1.39h1.303v-3.257v-1.303v-3.257 h-1.303V30.288z"/><rect width="1.303" height="7.818" x="41.087" y="27.031" fill="#fff"/><circle cx="41.738" cy="24.425" r="1.303" fill="#fff"/><path fill="#fff" d="M47.107,28.334c0.56,0,1.095,0.221,1.498,0.612l0.3,0.3v-1.694 c-0.534-0.339-1.147-0.521-1.798-0.521c-1.876,0-3.414,1.538-3.414,3.414v0.99c0,1.876,1.538,3.414,3.414,3.414 c0.651,0,1.264-0.182,1.798-0.521v-1.694l-0.3,0.3c-0.404,0.391-0.938,0.612-1.498,0.612c-1.16,0-2.111-0.951-2.111-2.111v-0.99 C44.996,29.285,45.947,28.334,47.107,28.334z"/><path fill="#fff" d="M37.386,30.327c-1.094-0.365-1.511-0.586-1.511-1.342c0-0.352,0.189-0.619,0.319-0.71 c0.665-0.534,2.1-0.499,3.307,0.197v-1.329c-1.155-0.437-3.027-0.672-4.16,0.214c-0.508,0.391-0.769,0.951-0.769,1.629 c0,1.772,1.381,2.241,2.398,2.567c1.094,0.365,1.511,0.586,1.511,1.342c0,0.352-0.143,0.508-0.274,0.599 c-0.664,0.534-2.41,0.417-3.635,0.169v1.329c0.508,0.091,1.212,0.182,1.915,0.182c0.925,0,1.889-0.156,2.528-0.651 c0.508-0.391,0.769-0.951,0.769-1.629C39.784,31.122,38.403,30.653,37.386,30.327z"/></g></svg>